<svg width="633" height="840" viewBox="0 0 633 840" fill="none" xmlns="http://www.w3.org/2000/svg">
<rect width="657" height="836" transform="translate(2 4)" fill="#CCCCCC"/>
<line y1="-1.5" x2="1064.67" y2="-1.5" transform="matrix(0.618029 0.786155 -0.315975 0.948768 1 3)" stroke="black" stroke-width="3"/>
<line y1="-1.5" x2="1064.67" y2="-1.5" transform="matrix(-0.618029 0.786155 0.315975 0.948768 659 3)" stroke="black" stroke-width="3"/>
<rect x="291" y="385" width="80" height="74" rx="37" fill="#F6F6F6"/>
<path fill-rule="evenodd" clip-rule="evenodd" d="M321 416.167C321 413.866 322.865 412 325.166 412C327.468 412 329.333 413.866 329.333 416.167C329.333 418.468 327.468 420.333 325.166 420.333C322.865 420.333 321 418.468 321 416.167ZM325.166 415.333C324.706 415.333 324.333 415.707 324.333 416.167C324.333 416.627 324.706 417 325.166 417C325.627 417 326 416.627 326 416.167C326 415.707 325.627 415.333 325.166 415.333Z" fill="#2D3648"/>
<path fill-rule="evenodd" clip-rule="evenodd" d="M314.333 410.333C314.333 407.572 316.572 405.333 319.333 405.333H342.666C345.428 405.333 347.666 407.572 347.666 410.333V433.667C347.666 436.428 345.428 438.667 342.666 438.667H319.333C316.572 438.667 314.333 436.428 314.333 433.667V410.333ZM319.333 408.667C318.413 408.667 317.666 409.413 317.666 410.333V433.667C317.666 434.382 318.116 434.991 318.748 435.228L336.488 417.488C337.139 416.837 338.194 416.837 338.845 417.488L344.333 422.976V410.333C344.333 409.413 343.587 408.667 342.666 408.667H319.333ZM344.333 427.69L337.666 421.024L323.357 435.333H342.666C343.587 435.333 344.333 434.587 344.333 433.667V427.69Z" fill="#2D3648"/>
</svg>
